/* XPM */
static char *edab42d6632d4254f66557d94d4faa57t8d2YgxppSt0U4bY[] = {
/* columns rows colors chars-per-pixel */
"10 9 55 1 ",
"  c #26536F",
". c #222E42",
"X c #23364C",
"o c #23364C",
"O c #222E42",
"+ c #2A779B",
"@ c #23374D",
"# c #23374D",
"$ c #233146",
"% c #211E2F",
"& c None",
"* c #211F30",
"= c #211C2C",
"- c #201929",
"; c #201929",
": c #2D97C0",
"> c #2C96BF",
", c #2E96BF",
"< c #3499C1",
"1 c #2D96BF",
"2 c #2D97C1",
"3 c #2FAFDD",
"4 c #31AEDC",
"5 c #88D1EB",
"6 c #B0E1F3",
"7 c #32AFDC",
"8 c #2D96C0",
"9 c #2CACDB",
"0 c #65C1E4",
"q c #F8FCFE",
"w c #CFECF6",
"e c #33AEDB",
"r c #2FADDC",
"t c #2EADDB",
"y c #3FB3DD",
"u c #96D5EC",
"i c #CBEAF6",
"p c #5CBEE2",
"a c #D2EDF7",
"s c #F3FAFD",
"d c #A3DAEF",
"f c #34AFDD",
"g c #2C8CB4",
"h c #2EAFDE",
"j c #4AB9E1",
"k c #7ECDEA",
"l c #7DCDEA",
"z c #6EC7E8",
"x c #32B1DF",
"c c #275A77",
"v c #255875",
"b c #235775",
"n c #245775",
"m c #275976",
"M c white",
/* pixels */
" .XooooX. ",
"O+:>,<1:+O",
"@23456732@",
"#890qwer8#",
"#8tyuier8#",
"#29pasdf2#",
"$ghjklzxg$",
"%&cvbbnm&%",
"*=-;;;;-=*"
};
