/* XPM */
static char *_df4028f6a924405e8aaca251e6bd9d3MkWXuRw2TJ5aEhsq[] = {
/* columns rows colors chars-per-pixel */
"64 64 12 1 ",
"  c #211F30",
". c #48475B",
"X c #62677A",
"o c #BA570B",
"O c #CE8B16",
"+ c #E1CA33",
"@ c #D5B195",
"# c #D8BD9B",
"$ c #F7EC8A",
"% c #AFBBC3",
"& c #D8E1E4",
"* c white",
/* pixels */
"################################################################",
"################################################################",
"################################################################",
"###############################@@###############################",
"##############################@@@@##############################",
"#############################@@@@@@#############################",
"############################@@@@@@@@############################",
"###########################@@@@@@@@@@###########################",
"##########################@@@@@@@@@@@@##########################",
"#########################@@@@@@@@@@@@@@#########################",
"########################@@@@@@@@@@@@@@@@########################",
"#######################@@@@@@@@@@@@@@@@@@#######################",
"######################@@@@@@@@@@@@@@@@@@@@######################",
"#####################@@@@@@@@@@@@@@@@@@@@@@#####################",
"####################@@@@@@@@@@@@@@@@@@@@@@@@####################",
"###################@@@@@@@@@@@@@@@@@@@@@@@@@@###################",
"##################@@@@@@@@@@@@@@@@@@@@@@@@@@@@##################",
"#################@@@@@@@@@@@@@@@@@@@@@@@@@@@@@@#################",
"################@@@@@@@@@@@@@@@@@@@@@@@@@@@@@@@@################",
"###############@@@@@@@@@@@@@@@@@@@@@@@@@@@@@@@@@@###############",
"##############@@@@@@@@@@@@@@@@@@@@@@@@@@@@@@@@@@@@##############",
"#############@@@@@@@@@@@@@@@@@@@@@@@@@@@@@@@@@@@@@@#############",
"############@@@@@                              @@@@@############",
"###########@@@@@ O+$$$$$$$$$$$$$$$$$$$$*$**$*** @@@@@###########",
"##########@      O+++++++++++++++++++++$+$$+$$$      @##########",
"#########@ *$$+O     oooooooooooooooooooooo     +$$** @#########",
"########@ *$$++O  OO++++++++++++++++++++++++++  +++$$* @########",
"#######@@ *$+    OO+++$$$$$$$$$$$$$$$$$$$$$$$++    +$* @@#######",
"######@@@ $+ @@@ OO++$$+$$$$$$$$$$$$$**$$**$$$+ @@@ +$ @@@######",
"#####@@@@ *+ @@@ OO++$$$$$$$$$$$$$$$$**$****$$+ @@@ +$ @@@@#####",
"####@@@@@ $+ @@@ OO++$+$$$$$$$$$$$$$$$$$****$$+ @@@ +* @@@@@####",
"###@@@@@@ $+ @@@ OO++$$$$$$$$$$$$$$$$$$$$**$$$+ @@@ +* @@@@@@###",
"##@@@@@@@ $+ @@@ OO++$$$$$$$$$$$$$$$$$$$$$$$$$+ @@@ +$ @@@@@@@##",
"#@@@@@@@@ $+ @@@ OO++$$$$$$$$$$$$$$$$$$$$$$*$$+ @@@ +$ @@@@@@@@#",
"@@@@@@@@@ $+ @@@ OO++$$$$$$$$$$$$$$$$$$$$$$$$$+ @@@ +$ @@@@@@@@@",
"@@@@@@@@@ $+ @@@ OO++$$$$$$$$$$$$$$$$$$$$$$$$$+ @@@ +$ @@@@@@@@@",
"@@@@@@@@@ $+ @@@ OO++$$+$$$$$$$$$$$$$$$$$$$$$$+ @@@ +$ @@@@@@@@@",
"@@@@@@@@@ $$+    OO+++$$$++$$$$$$$$$$$$$$+$$$++    +$$ @@@@@@@@@",
"@@@@@@@@@ +$$$+O OO++++$$++$$+$$$$$$$$$$$$$$+++ +$$$$+ @@@@@@@@@",
"@@@@@@@@@@ ++++OO OO+++++$$$$$$$$$$$$$$$$$++++ ++++++ @@@@@@@@@@",
"@@@@@@@@@@@       OOO++++++++++++++++++++++++O       @@@@@@@@@@@",
"@@@@@@@@@@@@@@@@@@ OOOO++++++++++++++++++++OO @@@@@@@@@@@@@@@@@@",
"@@@@@@@@@@@@@@@@@@@  OOOOOOOOOOOOOOOOOOOOOO  @@@@@@@@@@@@@@@@@@@",
"@@@@@@@@@@@@@@@@@@@@#          oo          #@@@@@@@@@@@@@@@@@@@@",
"@@@@@@@@@@@@@@@@@@@#########  ++++  #########@@@@@@@@@@@@@@@@@@@",
"@@@@@@@@@@@@@@@@@@########## +$$$$$ ##########@@@@@@@@@@@@@@@@@@",
"@@@@@@@@@@@@@@@@@##########   oooo   ##########@@@@@@@@@@@@@@@@@",
"@@@@@@@@@@@@@@@@########## O+$$$$$$** ##########@@@@@@@@@@@@@@@@",
"@@@@@@@@@@@@@@@########### O+$$$$$$$$ ###########@@@@@@@@@@@@@@@",
"@@@@@@@@@@@@@@############ O+++++++++ ############@@@@@@@@@@@@@@",
"@@@@@@@@@@@@@##############   oo+o   ##############@@@@@@@@@@@@@",
"@@@@@@@@@@@@################ ++++++ ################@@@@@@@@@@@@",
"@@@@@@@@@@@################# +$$$$$ #################@@@@@@@@@@@",
"@@@@@@@@@@################# ++$$$$$+ #################@@@@@@@@@@",
"@@@@@@@@@############      +++++$$+++      ############@@@@@@@@@",
"@@@@@@@@############ ++$$$$$$$$$$$$$$$$*$** ############@@@@@@@@",
"@@@@@@@############ O+++++++++++++++++++++++ ############@@@@@@@",
"@@@@@@############# OOOOOOOOOOOOOOOOOOOOOOOO #############@@@@@@",
"@@@@@##########                                  ##########@@@@@",
"@@@@########### .XXX****XXXX****XXXX****XXXX**** ###########@@@@",
"@@@############  ...&&&&....&&&&....&&&&....&&&* ############@@@",
"@@#############  ...&&&&....&&&&....&&&&....&&&* #############@@",
"@##############  ...&&&&....&&&&....&&&&....&&&* ##############@",
"############### %&&&....&&&&....&&&&....&&&&...X ###############"
};
