/* XPM */
static char *_b2e6028b6f241dbd618fbaefdf4f178NORZVwblYrFk5GKu[] = {
/* columns rows colors chars-per-pixel */
"32 32 160 2 ",
"   c #7B551F",
".  c #5B4429",
"X  c #59513C",
"o  c #7C5F27",
"O  c #645A31",
"+  c #756536",
"@  c #313045",
"#  c #5C5548",
"$  c #464451",
"%  c #575054",
"&  c #595254",
"*  c #53525F",
"=  c #65604F",
"-  c #595A6D",
";  c #7B6D65",
":  c #696C7A",
">  c #A37B1F",
",  c #AB781E",
"<  c #845D27",
"1  c #8B642D",
"2  c #8C692F",
"3  c #85782E",
"4  c #9E7028",
"5  c #836C35",
"6  c #8C6C31",
"7  c #856E38",
"8  c #887A3F",
"9  c #8C6E47",
"0  c #8D714B",
"q  c #8C7F49",
"w  c #836D5D",
"e  c #8D7450",
"r  c #86725F",
"t  c #8F7A5D",
"y  c #857262",
"u  c #8F7A61",
"i  c #82756C",
"p  c #88786D",
"a  c #927C63",
"s  c #927E6B",
"d  c #8F813B",
"f  c #948032",
"g  c #A18328",
"h  c #B68A22",
"j  c #A48230",
"k  c #AA8B32",
"l  c #AB9D3F",
"z  c #B99834",
"x  c #B4A33E",
"c  c #CA961D",
"v  c #CB981F",
"b  c #C49F2F",
"n  c #C6A12C",
"m  c #DAAC22",
"M  c #D6A32C",
"N  c #D8A42C",
"B  c #D2B129",
"V  c #DDB828",
"C  c #C6A232",
"Z  c #C9A431",
"A  c #CBA73A",
"S  c #DAA93E",
"D  c #D5B535",
"F  c #D9C239",
"G  c #E2C632",
"H  c #E4C837",
"J  c #E2C739",
"K  c #E4C839",
"L  c #968743",
"P  c #978846",
"I  c #9C8A46",
"U  c #9B8C4C",
"Y  c #998654",
"T  c #978C5E",
"R  c #9A8A59",
"E  c #9E935F",
"W  c #B1A353",
"Q  c #BFA251",
"!  c #B9AC52",
"~  c #BCAF59",
"^  c #BEB35F",
"/  c #94806E",
"(  c #9F9460",
")  c #8E8076",
"_  c #948173",
"`  c #95857C",
"'  c #98847B",
"]  c #9F9771",
"[  c #A19666",
"{  c #A19967",
"}  c #A18D76",
"|  c #AA8E77",
" . c #A49474",
".. c #A2927F",
"X. c #A39B7C",
"o. c #BFB56B",
"O. c #BBB274",
"+. c #CCAE48",
"@. c #DEAD4B",
"#. c #C7B749",
"$. c #CDB04C",
"%. c #D4BC44",
"&. c #C0B157",
"*. c #C9BB52",
"=. c #C0B25E",
"-. c #DCB35D",
";. c #E8D64D",
":. c #E5C951",
">. c #E7CC5A",
",. c #E7D05D",
"<. c #EAD659",
"1. c #ECDC5C",
"2. c #CCC060",
"3. c #DDCC63",
"4. c #E7CD60",
"5. c #EEDE61",
"6. c #EFE06A",
"7. c #F3E46C",
"8. c #F2E473",
"9. c #F4E77C",
"0. c #F5E87D",
"q. c #988C84",
"w. c #968E8A",
"e. c #898C99",
"r. c #908E93",
"t. c #939195",
"y. c #AB8E82",
"u. c #A39284",
"i. c #A29B83",
"p. c #A0938B",
"a. c #B59784",
"s. c #B69887",
"d. c #BD9D87",
"f. c #BD9D89",
"g. c #A59F91",
"h. c #979BA6",
"j. c #C09F8B",
"k. c #C1A18D",
"l. c #C1A98F",
"z. c #CBA88F",
"x. c #C4AC91",
"c. c #C9AD91",
"v. c #CDB395",
"b. c #D5B195",
"n. c #D7B999",
"m. c #D8BD9B",
"M. c #DBC09D",
"N. c #D5CF9E",
"B. c #F6EA83",
"V. c #F9EC83",
"C. c #F7EC8A",
"Z. c #F8ED8C",
"A. c #F7ED91",
"S. c #F8EE94",
"D. c #F9F0A2",
"F. c #FBF5BB",
"G. c #D2D9DE",
"H. c #FBF6C1",
"J. c #FCF9D7",
"K. c #FDFAD9",
/* pixels */
"m.m.m.m.m.m.m.m.m.m.m.m.m.m.m.m.m.m.m.m.m.m.m.m.m.m.m.m.m.m.m.m.",
"m.m.m.m.m.m.m.m.m.m.m.m.m.m.m.n.n.m.m.m.m.m.m.m.m.m.m.m.m.m.m.m.",
"m.m.m.m.m.m.m.m.m.m.m.m.m.m.n.b.b.n.m.m.m.m.m.m.m.m.m.m.m.m.m.m.",
"m.m.m.m.m.m.m.m.m.m.m.m.m.n.b.b.b.b.n.m.m.m.m.m.m.m.m.m.m.m.m.m.",
"m.m.m.m.m.m.m.m.m.m.m.m.n.b.b.b.b.b.b.n.m.m.m.m.m.m.m.m.m.m.m.m.",
"m.m.m.m.m.m.m.m.m.m.m.n.b.b.b.b.b.b.b.b.n.m.m.m.m.m.m.m.m.m.m.m.",
"m.m.m.m.m.m.m.m.m.m.n.b.b.b.b.b.b.b.b.b.b.n.m.m.m.m.m.m.m.m.m.m.",
"m.m.m.m.m.m.m.m.m.n.b.b.b.b.b.b.b.b.b.b.b.b.n.m.m.m.m.m.m.m.m.m.",
"m.m.m.m.m.m.m.m.n.b.b.b.b.b.b.b.b.b.b.b.b.b.b.n.m.m.m.m.m.m.m.m.",
"m.m.m.m.m.m.m.n.b.b.b.b.b.b.b.b.b.b.b.b.b.b.b.b.n.m.m.m.m.m.m.m.",
"m.m.m.m.m.m.n.b.c.f.f.f.f.f.f.f.f.f.f.f.f.f.d.z.b.n.m.m.m.m.m.m.",
"m.m.m.m.m.v.f.s.0 U ( E E E E E E E E  .i.i.g.q.a.f.v.m.m.m.m.m.",
"m.m.m.m.c.u.[ 7 . f z N N N N N N N M S @.Q { = q X.p.c.m.m.m.m.",
"m.m.m.n.' N.&.5 . h D :.>.>.>.>.>.>.4.>.>.3.#.O 8 =.N.' n.m.m.m.",
"m.m.n.b._ o.t y.1 m 1.9.C.Z.Z.Z.Z.C.F.H.K.K.V.L y.t ^ _ b.n.m.m.",
"m.n.b.b._ ! a k.1 m 1.0.C.C.C.C.C.C.A.S.J.K.C.P k.a O.` b.b.n.m.",
"n.b.b.b./ ! a k.1 m 1.Z.C.C.C.C.C.C.C.C.Z.D.C.P j.a ! _ b.b.b.n.",
"b.b.b.b./ ! a k.1 m 5.C.C.C.C.C.C.C.C.C.C.A.B.P k.a ! / b.b.b.b.",
"b.b.b.b.s 2.R w < m ;.8.8.8.C.C.C.C.C.C.9.C.7.d y R 2.s b.b.b.b.",
"b.b.b.b.| W *.g   v G ;.1.6.8.9.B.B.B.B.9.1.F 3 l *.W | b.b.b.b.",
"b.b.b.b.b.| u a w 4 c V G K K J J K K K H B j r a u | b.b.b.b.b.",
"b.b.b.b.b.b.b.b.b.| 9 2 6 6 o , , o 6 6 6 0 | b.b.b.b.b.b.b.b.b.",
"b.b.b.b.b.b.b.b.b.n.v.l.x.u.X +.$.# ..x.l.v.n.b.b.b.b.b.b.b.b.b.",
"b.b.b.b.b.b.b.b.n.m.m.m.v.e I -.-.X.q.v.m.m.m.n.b.b.b.b.b.b.b.b.",
"b.b.b.b.b.b.b.n.m.m.m.m.x.6 %.,.,.3.T l.m.m.m.m.n.b.b.b.b.b.b.b.",
"b.b.b.b.b.b.n.m.m.m.m.m.m.} + M D + } m.m.m.m.m.m.n.b.b.b.b.b.b.",
"b.b.b.b.b.n.m.m.m.m.v.l.l. .x 8.B.~  .l.l.v.m.m.m.m.n.b.b.b.b.b.",
"b.b.b.b.n.m.m.m.m.c.Y U ( ~ <.5.0.1.~ ] X...v.m.m.m.m.n.b.b.b.b.",
"b.b.b.n.m.m.m.v.x.y > n Z Z b b C C n C A k r l.v.m.m.m.n.b.b.b.",
"b.b.n.m.m.m.M.p $ * w.w.& & w.w.& & w.w.& % r.t._ m.m.m.m.n.b.b.",
"b.n.m.m.m.m.M.; @ - G.G.- - G.G.- - G.G.- - G.G.` m.m.m.m.m.n.b.",
"n.m.m.m.m.m.M.i : e.h.h.e.e.h.h.e.e.h.h.e.e.h.h.) m.m.m.m.m.m.n."
};
