/* XPM */
static char *_5029e247e6f407a9c460389c84ce3d4Z1bs4fuBhp3vKh7s[] = {
/* columns rows colors chars-per-pixel */
"32 32 170 2 ",
"   c #D8BD9B",
".  c #D7B999",
"X  c #D5B295",
"o  c #D5B195",
"O  c #D7B296",
"+  c #D9B498",
"@  c #D6B296",
"#  c #D7B396",
"$  c #DBB699",
"%  c #AD9079",
"&  c #735F50",
"*  c #725F50",
"=  c #766252",
"-  c #B6977F",
";  c #DAB599",
":  c #D6B396",
">  c #D8BA9A",
",  c #B1937C",
"<  c #6D5B4D",
"1  c #685749",
"2  c #665548",
"3  c #715D4F",
"4  c #BB9B83",
"5  c #DAB699",
"6  c #D9BB9A",
"7  c #B79980",
"8  c #6E5C4D",
"9  c #685649",
"0  c #665547",
"q  c #987E6A",
"w  c #D7B397",
"e  c #D8B497",
"r  c #D8B397",
"t  c #D4B094",
"y  c #8E7663",
"u  c #725E4F",
"i  c #C1A187",
"p  c #D9BA9A",
"a  c #B89A81",
"s  c #6E5B4D",
"d  c #6B594B",
"f  c #947B68",
"g  c #D3AF94",
"h  c #8B7361",
"j  c #705D4E",
"k  c #C2A288",
"l  c #BB9C83",
"z  c #6A584A",
"x  c #907865",
"c  c #9C826D",
"v  c #5E4E42",
"b  c #5F4F42",
"n  c #605043",
"m  c #A28772",
"M  c #D1AE92",
"N  c #866F5E",
"B  c #C6A58B",
"V  c #A18570",
"C  c #473B32",
"Z  c #C9A78D",
"A  c #7E6858",
"S  c #7D6857",
"D  c #C3A288",
"F  c #3A3029",
"G  c #B4957E",
"H  c #BC9C83",
"J  c #645346",
"K  c #967D69",
"L  c #D1AD92",
"P  c #AB8E78",
"I  c #A68A74",
"U  c #69584A",
"Y  c #A38872",
"T  c #CEAC90",
"R  c #625245",
"E  c #C6A48A",
"W  c #AC8F78",
"Q  c #3F342C",
"!  c #A48973",
"~  c #A78B75",
"^  c #BF9F86",
"/  c #302822",
"(  c #AD8F79",
")  c #40362D",
"_  c #C4A389",
"`  c #BD9D84",
"'  c #D4B095",
"]  c #AF917A",
"[  c #C1A087",
"{  c #BE9D85",
"}  c #322A23",
"|  c #BC9C84",
" . c #D5B296",
".. c #D6B295",
"X. c #D6B195",
"o. c #40352D",
"O. c #C5A48A",
"+. c #CCAA8F",
"@. c #CBA98E",
"#. c #CAA88D",
"$. c #CEAB90",
"%. c #BE9E85",
"&. c #312923",
"*. c #4A3E34",
"=. c #B89981",
"-. c #917865",
";. c #85735F",
":. c #D9BE9C",
">. c #D4BA98",
",. c #7B6B58",
"<. c #9E846F",
"1. c #BF9E85",
"2. c #967C69",
"3. c #57483D",
"4. c #C8AC8E",
"5. c #C6AE8E",
"6. c #D7BC9A",
"7. c #C4AC8D",
"8. c #CBAF91",
"9. c #4B3E34",
"0. c #A48873",
"q. c #D3AF93",
"w. c #4F4237",
"e. c #AE917A",
"r. c #463A31",
"t. c #D2AE93",
"y. c #9D836E",
"u. c #635245",
"i. c #A98D76",
"p. c #C1A589",
"a. c #DABE9C",
"s. c #BDA387",
"d. c #5C4D40",
"f. c #AA8D77",
"g. c #D3B094",
"h. c #D2AF93",
"j. c #433930",
"k. c #655848",
"l. c #A89378",
"z. c #C0A88A",
"x. c #DABF9D",
"c. c #DBBF9D",
"v. c #BCA487",
"b. c #A49076",
"n. c #5B5041",
"m. c #473D32",
"M. c #A88C76",
"N. c #D3B596",
"B. c #C8AF90",
"V. c #97846C",
"C. c #453D32",
"Z. c #6C5F4E",
"A. c #A38F75",
"S. c #A48F75",
"D. c #A08C73",
"F. c #645747",
"G. c #494035",
"H. c #A28E74",
"J. c #D4B797",
"K. c #D3B997",
"L. c #CBB191",
"P. c #917F68",
"I. c #494034",
"U. c #483F34",
"Y. c #4D4337",
"T. c #9C8970",
"R. c #CBB192",
"E. c #D5BA99",
"W. c #CBB292",
"Q. c white",
/* pixels */
"                                                                ",
"                              . .                               ",
"                            . X X .                             ",
"                          . X o o X .                           ",
"                        . X o o o o X .                         ",
"                      . X o o o o o o X .                       ",
"                    . X O + + + + + + @ X .                     ",
"                  . # $ % & * * * * = - ; : .                   ",
"                > $ , < 1 2 2 2 2 2 2 1 3 4 5 >                 ",
"              6 7 8 9 0 q w e r r e t y 0 9 u i p               ",
"            > a s d f @ r o t t t o o e g h d j k >             ",
"          > l z x t r o @ c v b n m @ o o e M N d B >           ",
"        . : V C Z @ o o c d A A S d m o o o O D F G : .         ",
"      . # H J K L o t c z P + + r I U Y t o o T y R E : .       ",
"    . X # W Q E @ # ! z W @ o o o o ~ U P O o # ^ / H O X .     ",
"  . X o # ( ) _ @ @ ` , o o o X X o ' ] [ @ o @ { } | O o X .   ",
".  .o o # ( ) _ @ o @ O ..X.X . .  .@ # @ o o @ { } | O o o  .. ",
"o o o o # W o.O.@ o o o +.@..     . #.$.o o o O %.&.H O o o o o ",
"o o o o # , *.=.o o o r -.;.:.    >.,.<.# o o ' , Q 1.@ o o o o ",
"o o o o o M 2.3.#.@ o @ 4.5.      6.7.8.@ o @ _ 9.0.q.o o o o o ",
"o o o o o w W w.- @ # . :.:.        :.:.. w o e.r.` O o o o o o ",
"o o o o o o t.y.u.i.p.:.:.            a.  s.I d.f.g.o o o o o o ",
"o o o o o o X.h.c j.k.l.z.x.x.x.x.c.:.v.b.n.m.M.t o o o o o o o ",
"o o o o o o o @ N.B.V.C.Z.A.A.A.A.S.D.F.G.H.B.J.@ o o o o o o o ",
"o o o o o o X .   :.K.L.P.G.I.I.I.U.Y.T.R.E.:.  . X o o o o o o ",
"o o o o o X .         :.K.L.L.L.L.L.W.>.:.        . X o o o o o ",
"o o o o X .               :.:.:.:.:.:.              . X o o o o ",
"o o o X .                                             . X o o o ",
"o o X .                                                 . X o o ",
"o X .                                                     . X o ",
" ..                                                         .  .",
".                                                             . "
};
