/* XPM */
static char *_e821c1e9f064ba7aa62e01d041bc3c0vXNIHVRSFTK9OaYd[] = {
/* columns rows colors chars-per-pixel */
"32 32 10 1 ",
"  c None",
". c #211F30",
"X c #48475B",
"o c #D2612F",
"O c #F2BC7E",
"+ c #EA71BD",
"@ c #FBDFB1",
"# c #F89CC0",
"$ c #D8E1E4",
"% c white",
/* pixels */
"                                ",
"                                ",
"                                ",
"         ...         ...        ",
"        .$%%.       .$%%.       ",
"       .$%%%%.     .$$%%%.      ",
"       .$%%%%........$$%%.      ",
"       .$%%%%%%%%%%%%%%%%.      ",
"      .$%$$%%XXXXXXXXXX%%%.     ",
"      .$%$$%XOOOOOOOOOOX%%.     ",
"      .$%%%.OO@@@@@@oo@OX%.     ",
"      .$%$%.O@oooo@o%%o@X%.     ",
"      .$%%%.O@o%%o@o%%o@X%.     ",
"      .$%%%.O@o%%o@o%%o@X%.     ",
"      .$%%%.O@OooO@OooO@X%.     ",
"      .$%%%$.O@@@@@@@@@X$%.     ",
"      .$%%%%$..........$%%.     ",
"       .#%%%%%%%%%%%%%%%#.      ",
"        .###%%%%%%%%%%##.       ",
"         ..#++++++++++..        ",
"          .###+++++++#.         ",
"         .######+++####.        ",
"        .########+#####..       ",
"       .+##+###########.+.      ",
"       ...+.%$%%%%%%%$$.O.      ",
"       .@O.+############..      ",
"        ..+###.......###.       ",
"         .+###.    .+##+.       ",
"         .+##.     .+++.        ",
"         .+#+.      ...         ",
"         .++.                   ",
"          ..                    "
};
