/* XPM */
static char *_cdd0e2aacb44835b27cc529e25f8b93zRnUFJRVtIS8wGT3[] = {
/* columns rows colors chars-per-pixel */
"64 64 93 2 ",
"   c black",
".  c #0A0807",
"X  c #120F0D",
"o  c #13100D",
"O  c #14110E",
"+  c #1E1915",
"@  c #241E19",
"#  c #26201B",
"$  c #28231D",
"%  c #2F2721",
"&  c #302A23",
"*  c #3A3028",
"=  c #3F352C",
"-  c #42372E",
";  c #44382F",
":  c #443B31",
">  c #483C32",
",  c #4E4136",
"<  c #4F4238",
"1  c #4F4539",
"2  c #504338",
"3  c #54453A",
"4  c #57483D",
"5  c #58493D",
"6  c #584D3F",
"7  c #594E40",
"8  c #5F4F43",
"9  c #605043",
"0  c #615144",
"q  c #615546",
"w  c #665547",
"e  c #685749",
"r  c #6A584A",
"t  c #6E5C4D",
"y  c #725F50",
"u  c #6F6150",
"i  c #736051",
"p  c #746051",
"a  c #736553",
"s  c #786454",
"d  c #7C6757",
"f  c #796A57",
"g  c #7E6958",
"h  c #7D6D59",
"j  c #816C5B",
"k  c #866F5D",
"l  c #80705C",
"z  c #87705F",
"x  c #88715F",
"c  c #867560",
"v  c #8A7360",
"b  c #8E7663",
"n  c #897862",
"m  c #8C7A64",
"M  c #917966",
"N  c #977E6A",
"B  c #987E6A",
"V  c #93816A",
"C  c #94826A",
"Z  c #9B816D",
"A  c #9D826E",
"S  c #9B886F",
"D  c #A58973",
"F  c #A08C73",
"G  c #A68A74",
"H  c #A88C75",
"J  c #A89378",
"K  c #AE907A",
"L  c #B0927B",
"P  c #B2947C",
"I  c #B6977F",
"U  c #B09A7E",
"Y  c #BA9B82",
"T  c #BC9C83",
"R  c #BF9F86",
"E  c #BBA486",
"W  c #C1A087",
"Q  c #C3A288",
"!  c #C8A78C",
"~  c #C4AB8C",
"^  c #C7AE8F",
"/  c #CBA98E",
"(  c #CCA98F",
")  c #C8AF8F",
"_  c #CEAB90",
"`  c #D2AE93",
"'  c #CCB392",
"]  c #CEB494",
"[  c #D3B094",
"{  c #D5B195",
"}  c #D0B695",
"|  c #D6BC9A",
" . c #D8BD9B",
/* pixels */
" . . . . . . . . . . . . . . . . . . . . . . . . . . . . . . . . . . . . . . . . . . . . . . . . . . . . . . . . . . . . . . . .",
" . . . . . . . . . . . . . . . . . . . . . . . . . . . . . . . . . . . . . . . . . . . . . . . . . . . . . . . . . . . . . . . .",
" . . . . . . . . . . . . . . . . . . . . . . . . . . . . . . . . . . . . . . . . . . . . . . . . . . . . . . . . . . . . . . . .",
" . . . . . . . . . . . . . . . . . . . . . . . . . . . . . . .{ {  . . . . . . . . . . . . . . . . . . . . . . . . . . . . . . .",
" . . . . . . . . . . . . . . . . . . . . . . . . . . . . . .{ { { {  . . . . . . . . . . . . . . . . . . . . . . . . . . . . . .",
" . . . . . . . . . . . . . . . . . . . . . . . . . . . . .{ { { { { {  . . . . . . . . . . . . . . . . . . . . . . . . . . . . .",
" . . . . . . . . . . . . . . . . . . . . . . . . . . . .{ { { { { { { {  . . . . . . . . . . . . . . . . . . . . . . . . . . . .",
" . . . . . . . . . . . . . . . . . . . . . . . . . . .{ { { { { { { { { {  . . . . . . . . . . . . . . . . . . . . . . . . . . .",
" . . . . . . . . . . . . . . . . . . . . . . . . . .{ { { { { { { { { { { {  . . . . . . . . . . . . . . . . . . . . . . . . . .",
" . . . . . . . . . . . . . . . . . . . . . . . . .{ { { { { { { { { { { { { {  . . . . . . . . . . . . . . . . . . . . . . . . .",
" . . . . . . . . . . . . . . . . . . . . . . . .{ { { { { { { { { { { { { { { {  . . . . . . . . . . . . . . . . . . . . . . . .",
" . . . . . . . . . . . . . . . . . . . . . . .{ { { { { { { { { { { { { { { { { {  . . . . . . . . . . . . . . . . . . . . . . .",
" . . . . . . . . . . . . . . . . . . . . . .{ { { { { { { { { { { { { { { { { { { {  . . . . . . . . . . . . . . . . . . . . . .",
" . . . . . . . . . . . . . . . . . . . . .{ { { { { { { { { { { { { { { { { { { { { {  . . . . . . . . . . . . . . . . . . . . .",
" . . . . . . . . . . . . . . . . . . . .{ { { { { { { { { { { { { { { { { { { { { { { {  . . . . . . . . . . . . . . . . . . . .",
" . . . . . . . . . . . . . . . . . . .{ { { { { { = + + + + + + + + + + + + e { { { { { {  . . . . . . . . . . . . . . . . . . .",
" . . . . . . . . . . . . . . . . . .{ { { { { { { #                         4 { { { { { { {  . . . . . . . . . . . . . . . . . .",
" . . . . . . . . . . . . . . . . .{ { { { 3 . . . H / / / / / / / / / / / / d . . . j { { { {  . . . . . . . . . . . . . . . . .",
" . . . . . . . . . . . . . . . .{ { { { { ,       K { { { { { { { { { { { { g       g { { { { {  . . . . . . . . . . . . . . . .",
" . . . . . . . . . . . . . . .{ { p       z { { { { { { { { { { { { { { { { { { { { 5       D { {  . . . . . . . . . . . . . . .",
" . . . . . . . . . . . . . .{ _ Q y X X X b { { { { { { { { { { { { { { { { { { { { 0 X X X Z Q ` {  . . . . . . . . . . . . . .",
" . . . . . . . . . . . . .{ { z   0 { { { { { { { { { { { { { { { { { { { { { { { { { { { { &   Y { {  . . . . . . . . . . . . .",
" . . . . . . . . . . . .{ / K g # p { { { { { { { { { P K K K K K K Y { { { { { { { { { { { , # A K [ {  . . . . . . . . . . . .",
" . . . . . . . . . . .{ { Z   , { { { { { { { { { { { o             & { { { { { { { { { { { { { +   / { {  . . . . . . . . . . .",
" . . . . . . . . . .{ { { Z   , { { { { { { { { { G Z - * * * * * * < Z K { { { { { { { { { { { +   / { { {  . . . . . . . . . .",
" . . . . . . . . .{ { { { Z   , { { { { { { { { { #   Q { { { { { { D   ; { { { { { { { { { { { +   / { { { {  . . . . . . . . .",
" . . . . . . . .{ { { ! x s , g { { { { { { { A x 5 , ! { { { { { { I , 8 x H { { { { { { { { { 8 , k x { { { {  . . . . . . . .",
" . . . . . . .{ { { { K   * { { { { { { { { { *   K { { { { { { { { { { M   4 { { { { { { { { { { { .   { { { { {  . . . . . . .",
" . . . . . .{ { { { { K   * { { { { { { { B p w 9 R { { { { { { { { { { L 9 e p G { { { { { { { { { .   { { { { { {  . . . . . .",
" . . . . .{ { { { { { K   * { { { { { { { ,   Z { { { { { { { { { { { { { { g   r { { { { { { { { { .   { { { { { { {  . . . . .",
" . . . .{ { { { { { { K   * { { { { { { { N i Y { { { { { { { { { { { { { { K i D { { { { { { { { { .   { { { { { { { {  . . . .",
" . . .{ { { { { { { { K   * { { { { { { { { { { { { { { { { { { { { { { { { { { { { { { { { { { { { .   { { { { { { { { {  . . .",
" . .{ { { { { { { { { K   * { { { { { { { { { { { { { { { { {  . .{ { { { { { { { { { { { { { { { { .   { { { { { { { { { {  . .",
" .{ { { { { { { { { { K   * { { { { { { { { { { { { { { { {  . . . .{ { { { { { { { { { { { { { { { .   { { { { { { { { { { {  .",
"{ { { { { { { { { { { K   * { { { { { { { { { { { { { { {  . . . . . .{ { { { { { { { { { { { { { { .   { { { { { { { { { { { { ",
"{ { { { { { { { { { { K   * { { { { { { { { { { { { { {  . . . . . . . .{ { { { { { { { { { { { { { .   { { { { { { { { { { { { ",
"{ { { { { { { { { { { K   * { { { { { { { { { { { > $ )  . . . . . . . .F $ t { { { { { { { { { { { .   { { { { { { { { { { { { ",
"{ { { { { { { { { { { K   * { { { { { { { { { { { #   ^  . . . . . . . .V   4 { { { { { { { { { { { .   { { { { { { { { { { { { ",
"{ { { { { { { { { { { ` W M O 5 { { { { { { { { { ^ ~ |  . . . . . . . .} ~ ' { { { { { { { { { % O Y W { { { { { { { { { { { { ",
"{ { { { { { { { { { { { { Z   , { { { { { { { {  . . . . . . . . . . . . . . . .{ { { { { { { { +   / { { { { { { { { { { { { { ",
"{ { { { { { { { { { { { { Z   , { { { { { { {  . . . . . . . . . . . . . . . . . .{ { { { { { { +   / { { { { { { { { { { { { { ",
"{ { { { { { { { { { { { { A . 2 ( ` { { { {  . . . . . . . . . . . . . . . . . . . .{ { { { _ ( @ . ( { { { { { { { { { { { { { ",
"{ { { { { { { { { { { { { { { z   0 { { {  . . . . . . . . . . . . . . . . . . . . . .{ { { &   Y { { { { { { { { { { { { { { { ",
"{ { { { { { { { { { { { { { { M + 0 Y Y E ]  . . . . . . . . . . . . . . . . . . . .^ E Y Y = + T { { { { { { { { { { { { { { { ",
"{ { { { { { { { { { { { { { { { { p       n  . . . . . . . . . . . . . . . . . . . .7       D { { { { { { { { { { { { { { { { { ",
"{ { { { { { { { { { { { { { { { { v & & & h J J J }  . . . . . . . . . . . .^ J J J q & & & K { { { { { { { { { { { { { { { { { ",
"{ { { { { { { { { { { { { { { { {  . . . .1       U  . . . . . . . . . . . .l       h  . . . .{ { { { { { { { { { { { { { { { { ",
"{ { { { { { { { { { { { { { { {  . . . . .f : : : c C C C C C C C C C C C C a : : : S  . . . . .{ { { { { { { { { { { { { { { { ",
"{ { { { { { { { { { { { { { {  . . . . . . . . . .$                         6  . . . . . . . . . .{ { { { { { { { { { { { { { { ",
"{ { { { { { { { { { { { { {  . . . . . . . . . . .u 6 6 6 6 6 6 6 6 6 6 6 6 m  . . . . . . . . . . .{ { { { { { { { { { { { { { ",
"{ { { { { { { { { { { { {  . . . . . . . . . . . . . . . . . . . . . . . . . . . . . . . . . . . . . .{ { { { { { { { { { { { { ",
"{ { { { { { { { { { { {  . . . . . . . . . . . . . . . . . . . . . . . . . . . . . . . . . . . . . . . .{ { { { { { { { { { { { ",
"{ { { { { { { { { { {  . . . . . . . . . . . . . . . . . . . . . . . . . . . . . . . . . . . . . . . . . .{ { { { { { { { { { { ",
"{ { { { { { { { { {  . . . . . . . . . . . . . . . . . . . . . . . . . . . . . . . . . . . . . . . . . . . .{ { { { { { { { { { ",
"{ { { { { { { { {  . . . . . . . . . . . . . . . . . . . . . . . . . . . . . . . . . . . . . . . . . . . . . .{ { { { { { { { { ",
"{ { { { { { { {  . . . . . . . . . . . . . . . . . . . . . . . . . . . . . . . . . . . . . . . . . . . . . . . .{ { { { { { { { ",
"{ { { { { { {  . . . . . . . . . . . . . . . . . . . . . . . . . . . . . . . . . . . . . . . . . . . . . . . . . .{ { { { { { { ",
"{ { { { { {  . . . . . . . . . . . . . . . . . . . . . . . . . . . . . . . . . . . . . . . . . . . . . . . . . . . .{ { { { { { ",
"{ { { { {  . . . . . . . . . . . . . . . . . . . . . . . . . . . . . . . . . . . . . . . . . . . . . . . . . . . . . .{ { { { { ",
"{ { { {  . . . . . . . . . . . . . . . . . . . . . . . . . . . . . . . . . . . . . . . . . . . . . . . . . . . . . . . .{ { { { ",
"{ { {  . . . . . . . . . . . . . . . . . . . . . . . . . . . . . . . . . . . . . . . . . . . . . . . . . . . . . . . . . .{ { { ",
"{ {  . . . . . . . . . . . . . . . . . . . . . . . . . . . . . . . . . . . . . . . . . . . . . . . . . . . . . . . . . . . .{ { ",
"{  . . . . . . . . . . . . . . . . . . . . . . . . . . . . . . . . . . . . . . . . . . . . . . . . . . . . . . . . . . . . . .{ ",
" . . . . . . . . . . . . . . . . . . . . . . . . . . . . . . . . . . . . . . . . . . . . . . . . . . . . . . . . . . . . . . . ."
};
